<svg width="39" height="39" viewBox="0 0 39 39" fill="none" xmlns="http://www.w3.org/2000/svg">
<g clip-path="url(#clip0_5_55)">
<path d="M32.5019 17.55C32.4271 11.8956 27.8264 7.14999 22.1545 7.14999C18.5412 7.14999 15.1482 9.10324 13.2749 11.9184C12.452 11.3704 11.4633 11.05 10.3999 11.05C7.5282 11.05 5.1999 13.3783 5.1999 16.25C5.1999 16.3494 5.209 16.4463 5.21485 16.5451C5.20835 16.6634 5.1999 16.783 5.1999 16.9C2.6077 18.1428 0.649902 21.097 0.649902 24.1507C0.649902 28.3855 4.1144 31.85 8.34915 31.85H24.2787C24.3684 31.85 24.4555 31.8396 24.5439 31.8363C24.633 31.8396 24.7201 31.85 24.8098 31.85H31.1817C35.124 31.85 38.3499 28.624 38.3499 24.6818C38.3499 21.1906 35.8188 18.1746 32.5019 17.55Z" fill="#249AD7" stroke="#249AD7" stroke-width="2" stroke-miterlimit="10" stroke-linecap="round"/>
<path d="M32.5019 17.55C32.5019 17.55 30.8542 17.3062 29.25 17.55H32.5019Z" fill="#249AD7"/>
<path d="M32.5019 17.55C32.5019 17.55 30.8542 17.3062 29.25 17.55" stroke="#249AD7" stroke-width="2" stroke-miterlimit="10" stroke-linecap="round"/>
<path d="M5.19995 16.25C5.19995 13.3783 7.52825 11.05 10.4 11.05C13.2717 11.05 15.6 13.3783 15.6 16.25" fill="#249AD7"/>
<path d="M5.19995 16.25C5.19995 13.3783 7.52825 11.05 10.4 11.05C13.2717 11.05 15.6 13.3783 15.6 16.25" stroke="#249AD7" stroke-width="2" stroke-miterlimit="10" stroke-linecap="round"/>
</g>
<defs>
<clipPath id="clip0_5_55">
<rect width="39" height="39" fill="white"/>
</clipPath>
</defs>
</svg>
