<svg width="48.000000" height="48.000000" viewBox="0 0 68 89" fill="none" xmlns="http://www.w3.org/2000/svg" xmlns:xlink="http://www.w3.org/1999/xlink">
	<defs/>
	<path id="Vector" d="M63.66 88.5L3 88.5C1.34 88.5 0 87.15 0 85.5L0 4C0 2.34 1.34 1 3 1L44.59 1C45.38 1 46.14 1.31 46.71 1.87L65.78 20.95C66.35 21.51 66.66 22.28 66.66 23.07L66.66 85.5C66.66 87.15 65.32 88.5 63.66 88.5Z" fill="#009DC0" fill-opacity="1.000000" fill-rule="nonzero"/>
	<path id="Vector" d="M65.58 23L46 23C45.44 23 45 22.55 45 22L45 2.41C45 1.52 46.07 1.07 46.7 1.7L66.29 21.29C66.92 21.92 66.47 23 65.58 23Z" fill="#005A6E" fill-opacity="1.000000" fill-rule="nonzero"/>
</svg>
