<svg width="13.000000" height="13.000000" viewBox="0 0 13 13" fill="none" xmlns="http://www.w3.org/2000/svg" xmlns:xlink="http://www.w3.org/1999/xlink">
	<defs/>
	<path d="M5.01 0L12.07 0C12.58 0 13 0.41 13 0.92C13 1.43 12.58 1.85 12.07 1.85L5.01 1.85C4.5 1.85 4.08 1.43 4.08 0.92C4.08 0.41 4.5 0 5.01 0ZM0.92 0.01L2.03 0C2.55 0 2.97 0.41 2.97 0.93C2.97 1.44 2.55 1.86 2.04 1.86L0.93 1.86C0.41 1.86 0 1.45 0 0.94C0 0.43 0.41 0.01 0.92 0.01ZM4.08 6.49C4.08 5.98 4.42 5.56 4.83 5.56L12.25 5.56C12.66 5.56 13 5.98 13 6.49C13 7 12.66 7.42 12.25 7.42L4.83 7.42C4.42 7.42 4.08 7 4.08 6.49ZM0 6.5C0 5.99 0.33 5.58 0.74 5.57L2.21 5.57C2.63 5.56 2.97 5.98 2.97 6.49C2.97 7 2.63 7.42 2.22 7.42L0.75 7.43C0.33 7.43 0 7.02 0 6.5ZM4.83 11.13C4.42 11.13 4.08 11.54 4.08 12.05C4.08 12.57 4.42 12.98 4.83 12.98L12.25 12.98C12.66 12.98 13 12.57 13 12.05C13 11.54 12.66 11.13 12.25 11.13L4.83 11.13ZM0.74 11.14C0.33 11.14 0 11.56 0 12.07C0 12.58 0.33 13 0.75 13L2.22 12.99C2.63 12.98 2.97 12.57 2.97 12.06C2.97 11.54 2.63 11.13 2.21 11.13L0.74 11.14Z" fill="#249AD7" fill-opacity="1.000000" fill-rule="evenodd"/>
</svg>
