<svg width="13.000000" height="13.000000" viewBox="0 0 13 13" fill="none" xmlns="http://www.w3.org/2000/svg" xmlns:xlink="http://www.w3.org/1999/xlink">
	<desc>
			Created with Pixso.
	</desc>
	<defs/>
	<path d="M5 0L1 0C0.447754 0 0 0.447716 0 1L0 5C0 5.55228 0.447754 6 1 6L5 6C5.55225 6 6 5.55228 6 5L6 1C6 0.447716 5.55225 0 5 0ZM8 0L12 0C12.5522 0 13 0.447716 13 1L13 5C13 5.55228 12.5522 6 12 6L8 6C7.44775 6 7 5.55228 7 5L7 1C7 0.447716 7.44775 0 8 0ZM5 7L1 7C0.447754 7 0 7.44772 0 8L0 12C0 12.5523 0.447754 13 1 13L5 13C5.55225 13 6 12.5523 6 12L6 8C6 7.44772 5.55225 7 5 7ZM12 7L8 7C7.44775 7 7 7.44772 7 8L7 12C7 12.5523 7.44775 13 8 13L12 13C12.5522 13 13 12.5523 13 12L13 8C13 7.44772 12.5522 7 12 7Z" clip-rule="evenodd" fill="#249AD7" fill-opacity="1.000000" fill-rule="evenodd"/>
</svg>
