<svg width="13.000000" height="13.000000" viewBox="0 0 13 13" fill="none" xmlns="http://www.w3.org/2000/svg" xmlns:xlink="http://www.w3.org/1999/xlink">
	<desc>
			Created with Pixso.
	</desc>
	<defs/>
	<path d="M2.8999 0L1 0C0.447754 0 0 0.447716 0 1L0 2.9C0 3.45229 0.447754 3.9 1 3.9L2.8999 3.9C3.45215 3.9 3.8999 3.45229 3.8999 2.9L3.8999 1C3.8999 0.447716 3.45215 0 2.8999 0ZM7.4502 0L5.5498 0C4.99756 0 4.5498 0.447716 4.5498 1L4.5498 2.9C4.5498 3.45229 4.99756 3.9 5.5498 3.9L7.4502 3.9C8.00244 3.9 8.4502 3.45229 8.4502 2.9L8.4502 1C8.4502 0.447716 8.00244 0 7.4502 0ZM12 0L10.1001 0C9.54785 0 9.1001 0.447716 9.1001 1L9.1001 2.9C9.1001 3.45229 9.54785 3.9 10.1001 3.9L12 3.9C12.5522 3.9 13 3.45229 13 2.9L13 1C13 0.447716 12.5522 0 12 0ZM2.8999 4.55L1 4.55C0.447754 4.55 0 4.99771 0 5.55L0 7.45C0 8.00229 0.447754 8.45 1 8.45L2.8999 8.45C3.45215 8.45 3.8999 8.00229 3.8999 7.45L3.8999 5.55C3.8999 4.99771 3.45215 4.55 2.8999 4.55ZM7.4502 4.55L5.5498 4.55C4.99756 4.55 4.5498 4.99771 4.5498 5.55L4.5498 7.45C4.5498 8.00229 4.99756 8.45 5.5498 8.45L7.4502 8.45C8.00244 8.45 8.4502 8.00229 8.4502 7.45L8.4502 5.55C8.4502 4.99771 8.00244 4.55 7.4502 4.55ZM12 4.55L10.1001 4.55C9.54785 4.55 9.1001 4.99771 9.1001 5.55L9.1001 7.45C9.1001 8.00229 9.54785 8.45 10.1001 8.45L12 8.45C12.5522 8.45 13 8.00229 13 7.45L13 5.55C13 4.99771 12.5522 4.55 12 4.55ZM2.8999 9.1L1 9.1C0.447754 9.1 0 9.54771 0 10.1L0 12C0 12.5523 0.447754 13 1 13L2.8999 13C3.45215 13 3.8999 12.5523 3.8999 12L3.8999 10.1C3.8999 9.54771 3.45215 9.1 2.8999 9.1ZM7.4502 9.1L5.5498 9.1C4.99756 9.1 4.5498 9.54771 4.5498 10.1L4.5498 12C4.5498 12.5523 4.99756 13 5.5498 13L7.4502 13C8.00244 13 8.4502 12.5523 8.4502 12L8.4502 10.1C8.4502 9.54771 8.00244 9.1 7.4502 9.1ZM12 9.1L10.1001 9.1C9.54785 9.1 9.1001 9.54771 9.1001 10.1L9.1001 12C9.1001 12.5523 9.54785 13 10.1001 13L12 13C12.5522 13 13 12.5523 13 12L13 10.1C13 9.54771 12.5522 9.1 12 9.1Z" clip-rule="evenodd" fill="#249AD7" fill-opacity="1.000000" fill-rule="evenodd"/>
</svg>
