<svg width="21.000000" height="21.000000" viewBox="0 0 21 21" fill="none" xmlns="http://www.w3.org/2000/svg" xmlns:xlink="http://www.w3.org/1999/xlink">
	<desc>
			Created with Pixso.
	</desc>
	<defs>
		<clipPath id="clip5_183">
			<rect width="21.000000" height="21.000000" fill="white" fill-opacity="0"/>
		</clipPath>
	</defs>
	<rect width="21.000000" height="21.000000" fill="#FFFFFF" fill-opacity="0"/>
	<g clip-path="url(#clip5_183)">
		<path d="M15.38 5.18L6.2 9.77L5.61 8.6L14.79 4L15.38 5.18ZM14.79 16.99L5.61 12.39L6.2 11.22L15.38 15.81L14.79 16.99Z" fill="#DCDCDC" fill-opacity="1.000000" fill-rule="evenodd"/>
		<path d="M17.71 15.75C18.24 15.75 18.74 15.95 19.11 16.32C19.48 16.69 19.68 17.19 19.68 17.71C19.68 18.24 19.48 18.74 19.11 19.11C18.74 19.48 18.24 19.68 17.71 19.68C17.19 19.68 16.69 19.48 16.32 19.11C15.95 18.74 15.75 18.24 15.75 17.71C15.75 17.19 15.95 16.69 16.32 16.32C16.69 15.95 17.19 15.75 17.71 15.75ZM17.71 14.43C18.58 14.43 19.42 14.78 20.03 15.39C20.65 16.01 21 16.84 21 17.71C21 18.58 20.65 19.42 20.03 20.03C19.42 20.65 18.58 21 17.71 21C16.84 21 16.01 20.65 15.39 20.03C14.78 19.42 14.43 18.58 14.43 17.71C14.43 16.84 14.78 16.01 15.39 15.39C16.01 14.78 16.84 14.43 17.71 14.43ZM17.71 1.31C18.24 1.31 18.74 1.51 19.11 1.88C19.48 2.25 19.68 2.75 19.68 3.28C19.68 3.8 19.48 4.3 19.11 4.67C18.74 5.04 18.24 5.25 17.71 5.25C17.19 5.25 16.69 5.04 16.32 4.67C15.95 4.3 15.75 3.8 15.75 3.28C15.75 2.75 15.95 2.25 16.32 1.88C16.69 1.51 17.19 1.31 17.71 1.31ZM17.71 0C18.58 0 19.42 0.34 20.03 0.96C20.65 1.57 21 2.41 21 3.28C21 4.15 20.65 4.98 20.03 5.6C19.42 6.21 18.58 6.56 17.71 6.56C16.84 6.56 16.01 6.21 15.39 5.6C14.78 4.98 14.43 4.15 14.43 3.28C14.43 2.41 14.78 1.57 15.39 0.96C16.01 0.34 16.84 0 17.71 0ZM3.28 8.53C3.8 8.53 4.3 8.73 4.67 9.1C5.04 9.47 5.25 9.97 5.25 10.5C5.25 11.02 5.04 11.52 4.67 11.89C4.3 12.26 3.8 12.46 3.28 12.46C2.75 12.46 2.25 12.26 1.88 11.89C1.52 11.52 1.31 11.02 1.31 10.5C1.31 9.97 1.52 9.47 1.88 9.1C2.25 8.73 2.75 8.53 3.28 8.53ZM3.28 7.21C4.15 7.21 4.98 7.56 5.6 8.17C6.21 8.79 6.56 9.62 6.56 10.5C6.56 11.37 6.21 12.2 5.6 12.82C4.98 13.43 4.15 13.78 3.28 13.78C2.41 13.78 1.57 13.43 0.96 12.82C0.34 12.2 0 11.37 0 10.5C0 9.62 0.34 8.79 0.96 8.17C1.57 7.56 2.41 7.21 3.28 7.21Z" fill="#DCDCDC" fill-opacity="1.000000" fill-rule="evenodd"/>
	</g>
</svg>
